<svg width="108" height="95" viewBox="0 0 108 95" version="1.1" xmlns="http://www.w3.org/2000/svg" xmlns:xlink="http://www.w3.org/1999/xlink">
<title>electricity</title>
<desc>Created using Figma</desc>
<g id="Canvas" transform="translate(-242 -3726)">
<g id="electricity">
<g id="Group">
<g id="Group">
<g id="Vector">
<use xlink:href="#path0_fill" transform="translate(272.566 3737.62)" fill="#24DB71"/>
</g>
</g>
</g>
<g id="Group">
<g id="Group">
<g id="Vector">
<use xlink:href="#path1_fill" transform="translate(242 3770.32)" fill="#24DB71"/>
</g>
</g>
</g>
<g id="Group">
<g id="Group">
<g id="Vector">
<use xlink:href="#path2_fill" transform="translate(332.287 3770.32)" fill="#24DB71"/>
</g>
</g>
</g>
<g id="Group">
<g id="Group">
<g id="Vector">
<use xlink:href="#path3_fill" transform="translate(267.417 3804.71)" fill="#24DB71"/>
</g>
</g>
</g>
<g id="Group">
<g id="Group">
<g id="Vector">
<use xlink:href="#path4_fill" transform="translate(312.561 3726)" fill="#24DB71"/>
</g>
</g>
</g>
<g id="Group">
<g id="Group">
<g id="Vector">
<use xlink:href="#path5_fill" transform="translate(312.561 3804.71)" fill="#24DB71"/>
</g>
</g>
</g>
<g id="Group">
<g id="Group">
<g id="Vector">
<use xlink:href="#path6_fill" transform="translate(267.417 3726)" fill="#24DB71"/>
</g>
</g>
</g>
</g>
</g>
<defs>
<path id="path0_fill" d="M 46.4519 28.9977C 45.8889 28.005 44.8395 27.3924 43.7032 27.3924L 28.707 27.3924L 28.707 3.18102C 28.707 1.74775 27.7534 0.491545 26.3785 0.11303C 25.0032 -0.265061 23.5464 0.327417 22.8202 1.56093L 0.441174 39.5702C -0.137638 40.5535 -0.147549 41.7732 0.415232 42.7659C 0.978224 43.7585 2.02764 44.3711 3.16396 44.3711L 18.1601 44.3711L 18.1601 68.5825C 18.1601 70.0158 19.1138 71.272 20.4887 71.6505C 21.8667 72.0294 23.3222 71.4338 24.047 70.2026L 46.426 32.1931C 47.0048 31.21 47.0147 29.9903 46.4519 28.9977ZM 24.4883 56.9639L 24.4883 41.1905C 24.4883 39.4339 23.0716 38.0097 21.3242 38.0097L 8.71351 38.0097L 22.3789 14.7996L 22.3789 30.573C 22.3789 32.3297 23.7955 33.7538 25.5429 33.7538L 38.1536 33.7538L 24.4883 56.9639Z"/>
<path id="path1_fill" d="M 14.5492 0L 3.16406 0C 1.41666 0 0 1.42415 0 3.1808C 0 4.93745 1.41666 6.3616 3.16406 6.3616L 14.5492 6.3616C 16.2966 6.3616 17.7133 4.93745 17.7133 3.1808C 17.7133 1.42415 16.2966 0 14.5492 0Z"/>
<path id="path2_fill" d="M 14.5492 0L 3.16406 0C 1.41666 0 2.05994e-07 1.42415 2.05994e-07 3.1808C 2.05994e-07 4.93745 1.41666 6.3616 3.16406 6.3616L 14.5492 6.3616C 16.2966 6.3616 17.7133 4.93745 17.7133 3.1808C 17.7133 1.42415 16.2966 0 14.5492 0Z"/>
<path id="path3_fill" d="M 10.4375 0.425787C 8.92406 -0.45169 6.98913 0.0705939 6.11606 1.5925L 0.423489 11.5181C -0.44937 13.04 0.0703794 14.9849 1.58428 15.8624C 3.09775 16.7399 5.03289 16.2176 5.90575 14.6957L 11.5983 4.77012C 12.4712 3.24822 11.9514 1.30326 10.4375 0.425787Z"/>
<path id="path4_fill" d="M 10.4375 0.42583C 8.92406 -0.451647 6.98913 0.0704281 6.11606 1.59255L 0.423491 11.5181C -0.449369 13.04 0.0703795 14.985 1.58428 15.8625C 3.09775 16.7399 5.03289 16.2177 5.90575 14.6957L 11.5983 4.77017C 12.4712 3.24826 11.9514 1.30331 10.4375 0.42583Z"/>
<path id="path5_fill" d="M 11.5983 11.5181L 5.90575 1.59255C 5.03268 0.0704281 3.09775 -0.451644 1.58428 0.425833C 0.0703795 1.30331 -0.449369 3.24826 0.423491 4.77017L 6.11606 14.6957C 6.98871 16.2172 8.92343 16.7402 10.4375 15.8625C 11.9514 14.985 12.4712 13.04 11.5983 11.5181Z"/>
<path id="path6_fill" d="M 11.5983 11.5182L 5.90575 1.59264C 5.03268 0.0705223 3.09775 -0.451765 1.58428 0.425924C 0.0703794 1.3034 -0.44937 3.24835 0.423489 4.77026L 6.11606 14.6958C 6.98871 16.2173 8.92343 16.7402 10.4375 15.8626C 11.9514 14.9851 12.4712 13.0401 11.5983 11.5182Z"/>
</defs>
</svg>
