<svg width="28" height="24" viewBox="0 0 28 24" version="1.1" xmlns="http://www.w3.org/2000/svg" xmlns:xlink="http://www.w3.org/1999/xlink">
    <title>heart-shape-outline</title>
    <desc>Created using Figma</desc>
    <g id="Canvas" transform="translate(-2511 -42)">
        <g id="heart-shape-outline">
            <g id="Group">
                <g id="Vector">
                    <use xlink:href="#path0_fill" transform="translate(2511 42)" fill="#FF5048"/>
                </g>
            </g>
        </g>
    </g>
    <defs>
        <path id="path0_fill" d="M 26.0156 1.93757C 24.6926 0.645674 22.8647 -1.00209e-07 20.5311 -1.00209e-07C 19.8853 -1.00209e-07 19.2262 0.111972 18.5545 0.335807C 17.8825 0.559807 17.2574 0.862012 16.6798 1.2422C 16.1014 1.62229 15.6044 1.97922 15.1874 2.31245C 14.7709 2.6458 14.375 3.00005 14 3.37493C 13.6249 3.00005 13.2291 2.6458 12.8125 2.31245C 12.3957 1.97922 11.8985 1.6225 11.3202 1.2422C 10.7421 0.861848 10.1171 0.559862 9.44521 0.335807C 8.77343 0.112027 8.11446 -1.00209e-07 7.46867 -1.00209e-07C 5.13525 -1.00209e-07 3.30724 0.645838 1.98437 1.93757C 0.661492 3.22919 0 5.02075 0 7.31241C 0 8.01034 0.12259 8.72935 0.367277 9.46856C 0.611964 10.2081 0.890801 10.8384 1.20324 11.3592C 1.51563 11.8798 1.86988 12.3876 2.26572 12.8825C 2.66157 13.3772 2.95086 13.7182 3.13294 13.9057C 3.31518 14.0932 3.45845 14.2288 3.5626 14.3122L 13.3125 23.7185C 13.5 23.906 13.7292 24 14 24C 14.2708 24 14.5001 23.906 14.6875 23.7185L 24.4219 14.3431C 26.8074 11.9581 28 9.61435 28 7.31219C 28.0001 5.02037 27.3386 3.22897 26.0156 1.93757ZM 23.0625 12.8746L 14 21.6089L 4.92209 12.8589C 2.97412 10.9114 2.00029 9.06221 2.00029 7.31219C 2.00029 6.46856 2.11227 5.72367 2.3361 5.07799C 2.5601 4.43221 2.84655 3.91903 3.19549 3.53884C 3.54449 3.15854 3.9689 2.84889 4.46889 2.60913C 4.96915 2.36959 5.45869 2.20809 5.93778 2.12479C 6.41686 2.04161 6.9272 1.99996 7.46895 1.99996C 8.01053 1.99996 8.59398 2.13262 9.21897 2.39832C 9.84385 2.66391 10.4194 2.99726 10.9454 3.39824C 11.4714 3.79951 11.922 4.17444 12.2971 4.52328C 12.6721 4.87244 12.9844 5.19254 13.2345 5.48424C 13.4219 5.71349 13.6773 5.82809 14.0001 5.82809C 14.323 5.82809 14.5781 5.71349 14.7657 5.48424C 15.0157 5.19254 15.3283 4.87227 15.7033 4.52328C 16.0783 4.17444 16.5288 3.79967 17.0547 3.39824C 17.5808 2.99726 18.1563 2.66391 18.7815 2.39832C 19.4063 2.13267 19.9899 1.99996 20.5315 1.99996C 21.0732 1.99996 21.5834 2.04161 22.0627 2.12479C 22.5419 2.20803 23.0314 2.36959 23.5315 2.60913C 24.0316 2.84884 24.456 3.1587 24.8049 3.53884C 25.1538 3.91903 25.4404 4.43221 25.6644 5.07799C 25.888 5.72367 26 6.46856 26 7.31219C 25.9999 9.06221 25.0209 10.9165 23.0625 12.8746Z"/>
    </defs>
</svg>
