<svg width="150" height="24" viewBox="0 0 150 24" version="1.1" xmlns="http://www.w3.org/2000/svg" xmlns:xlink="http://www.w3.org/1999/xlink">
<title>true-hero</title>
<desc>Created using Figma</desc>
<g id="Canvas" transform="translate(-1368 245)">
<g id="true-hero">
<g id="&#208;&#161;&#208;&#187;&#208;&#190;&#208;&#185; 2">
<g id="&#208;&#161;&#208;&#187;&#208;&#190;&#208;&#185; 1">
<g id="Canvas">
<g id="logo">
<g id="Vector">
<g id="path4 fill">
<use xlink:href="#path0_fill" transform="translate(1368 -245)" fill="#FF5048"/>
</g>
</g>
</g>
</g>
<g id="Vector">
<use xlink:href="#path1_fill" transform="translate(1393.05 -239.232)" fill="#FFFFFF"/>
</g>
<g id="Vector">
<use xlink:href="#path2_fill" transform="translate(1406.18 -239.517)" fill="#FFFFFF"/>
</g>
<g id="Vector">
<use xlink:href="#path3_fill" transform="translate(1419.13 -239.37)" fill="#FFFFFF"/>
</g>
<g id="Vector">
<use xlink:href="#path4_fill" transform="translate(1433.62 -239.163)" fill="#FFFFFF"/>
</g>
<g id="Vector">
<use xlink:href="#path5_fill" transform="translate(1449.84 -239.37)" fill="#FFFFFF"/>
</g>
<g id="Vector">
<use xlink:href="#path6_fill" transform="translate(1464.49 -239.163)" fill="#FFFFFF"/>
</g>
<g id="Vector">
<use xlink:href="#path7_fill" transform="translate(1476.41 -239.557)" fill="#FFFFFF"/>
</g>
<g id="Vector">
<use xlink:href="#path8_fill" transform="translate(1488.81 -239.576)" fill="#FFFFFF"/>
</g>
</g>
</g>
</g>
</g>
<defs>
<path id="path0_fill" d="M 14.91 0L 8.07 5.41L 12.86 5.41L 4.4 13.79L 10.33 13.79L 0 24L 141.83 24L 149.83 0L 14.91 0Z"/>
<path id="path1_fill" d="M 0.417543 3.11159C 0.297378 2.9075 0.20331 2.68912 0.137544 2.46159C 0.0497614 2.18 0.0059121 1.88655 0.00754299 1.59159C -0.0134132 1.37319 0.0094008 1.1528 0.0746492 0.943316C 0.139898 0.733834 0.246271 0.539469 0.387544 0.371595C 0.520708 0.245739 0.677929 0.14809 0.849771 0.0845081C 1.02161 0.0209266 1.20453 -0.00727565 1.38754 0.00159471L 10.8675 0.00159471C 10.9876 0.205739 11.0817 0.424101 11.1475 0.651595C 11.2353 0.933191 11.2792 1.22664 11.2775 1.52159C 11.2985 1.74 11.2757 1.96039 11.2104 2.16987C 11.1452 2.37936 11.0388 2.57372 10.8975 2.7416C 10.7644 2.86745 10.6072 2.9651 10.4353 3.02868C 10.2635 3.09226 10.0806 3.12047 9.89754 3.11159L 7.48754 3.11159L 7.48754 13.1116C 7.24043 13.1702 6.98996 13.2136 6.73754 13.2416C 6.40578 13.2823 6.0718 13.3023 5.73754 13.3016C 5.43929 13.3077 5.14117 13.2842 4.84754 13.2316C 4.61643 13.1915 4.39753 13.0992 4.20754 12.9616C 4.02797 12.8232 3.89248 12.6356 3.81754 12.4216C 3.72153 12.1282 3.67753 11.8202 3.68754 11.5116L 3.68754 3.11159L 0.417543 3.11159Z"/>
<path id="path2_fill" d="M 3.77139 9.26711L 3.77139 13.4371C 3.52428 13.4957 3.27381 13.5391 3.02139 13.5671C 2.68962 13.6078 2.35565 13.6278 2.02139 13.6271C 1.72615 13.6293 1.43141 13.6025 1.14139 13.5471C 0.912943 13.5084 0.696991 13.4158 0.511392 13.2771C 0.33672 13.1362 0.205072 12.9491 0.131394 12.7371C 0.0353798 12.4437 -0.00861642 12.1357 0.00139337 11.8271L 0.00139337 1.58711C -0.0109264 1.32692 0.0787681 1.07219 0.251393 0.877113C 0.446359 0.710502 0.674848 0.587731 0.921392 0.517113C 1.47938 0.328905 2.05605 0.201499 2.64139 0.137112C 3.33499 0.054837 4.03294 0.0147633 4.73139 0.0171126C 6.33815 -0.0954198 7.93456 0.349597 9.25139 1.27711C 9.75052 1.68983 10.1474 2.21239 10.4111 2.80394C 10.6748 3.39549 10.7981 4.04001 10.7714 4.68711C 10.7924 5.50923 10.5468 6.31609 10.0714 6.98711C 9.63904 7.59768 9.07519 8.10344 8.42139 8.46711C 8.94139 9.17378 9.45473 9.84045 9.96139 10.4671C 10.4065 11.0006 10.8078 11.5691 11.1614 12.1671C 11.0468 12.6365 10.7662 13.0486 10.3714 13.3271C 9.99397 13.5924 9.5427 13.7323 9.08139 13.7271C 8.80077 13.7324 8.52095 13.6953 8.25139 13.6171C 8.03243 13.5527 7.82612 13.4512 7.64139 13.3171C 7.46015 13.1799 7.29864 13.0184 7.16139 12.8371C 7.01276 12.6421 6.87586 12.4384 6.75139 12.2271L 4.92139 9.26711L 3.77139 9.26711ZM 5.14139 6.37711C 5.61181 6.40313 6.07512 6.25345 6.44139 5.95711C 6.60804 5.79661 6.73741 5.60147 6.82036 5.38547C 6.9033 5.16948 6.93779 4.9379 6.92139 4.70711C 6.93757 4.47176 6.89801 4.23591 6.80592 4.01871C 6.71383 3.80152 6.57181 3.60911 6.39139 3.45711C 5.8927 3.13645 5.30232 2.98886 4.71139 3.03711L 4.19139 3.03711L 3.76139 3.09711L 3.76139 6.35711L 5.14139 6.37711Z"/>
<path id="path3_fill" d="M 11.7305 8.51009C 11.7406 9.24291 11.6046 9.97039 11.3305 10.6501C 11.0731 11.2804 10.6766 11.8445 10.1705 12.3001C 9.63393 12.7801 9.00417 13.1443 8.32055 13.3701C 6.72077 13.8616 5.01032 13.8616 3.41055 13.3701C 2.72846 13.1505 2.09877 12.7931 1.56054 12.3201C 1.05453 11.8645 0.657997 11.3004 0.400545 10.6701C 0.126213 9.99046 -0.00977181 9.26293 0.000547277 8.53009L 0.000547277 0.200093L 0.760546 0.0800929C 1.09154 0.0295442 1.42573 0.00280898 1.76055 9.29636e-05C 2.05578 -0.00179108 2.35049 0.0250013 2.64055 0.0800929C 2.86954 0.128588 3.08479 0.227672 3.27055 0.370093C 3.45012 0.508503 3.58561 0.696107 3.66055 0.910093C 3.75656 1.20354 3.80055 1.5115 3.79054 1.82009L 3.79054 8.45009C 3.77376 8.74672 3.81643 9.04372 3.91603 9.32363C 4.01563 9.60355 4.17016 9.86073 4.37055 10.0801C 4.7778 10.4597 5.31382 10.6707 5.87055 10.6707C 6.42727 10.6707 6.96329 10.4597 7.37055 10.0801C 7.56821 9.85932 7.72032 9.60167 7.81814 9.32195C 7.91596 9.04223 7.95756 8.74594 7.94055 8.45009L 7.94055 0.200093L 8.70055 0.0800929C 9.03154 0.0295442 9.36573 0.00280898 9.70055 9.29636e-05C 9.99578 -0.00179108 10.2905 0.0250013 10.5805 0.0800929C 10.8114 0.121179 11.03 0.213437 11.2205 0.350093C 11.4001 0.488503 11.5356 0.676107 11.6105 0.890093C 11.7066 1.18354 11.7506 1.4915 11.7405 1.80009L 11.7305 8.51009Z"/>
<path id="path4_fill" d="M 0.00302389 2.02302C -0.0118552 1.75262 0.0283342 1.48202 0.121157 1.22761C 0.213981 0.973206 0.357505 0.740303 0.543025 0.543021C 0.740307 0.357501 0.973206 0.213979 1.22761 0.121156C 1.48201 0.0283326 1.75262 -0.0118578 2.02302 0.0030213L 9.19302 0.0030213C 9.31022 0.200292 9.401 0.412104 9.46302 0.633021C 9.54417 0.90216 9.58461 1.18192 9.58302 1.46302C 9.60329 1.67215 9.58192 1.88323 9.52013 2.08405C 9.45834 2.28488 9.35735 2.47146 9.22302 2.63302C 9.09613 2.75194 8.94668 2.84418 8.7835 2.9043C 8.62032 2.96442 8.44673 2.99119 8.27302 2.98302L 3.70302 2.98302L 3.70302 4.98302L 8.59302 4.98302C 8.70884 5.17746 8.79956 5.38578 8.86302 5.60302C 8.94452 5.86865 8.98498 6.14517 8.98302 6.42302C 9.02345 6.84375 8.89785 7.26361 8.63302 7.59302C 8.50983 7.71136 8.36386 7.8034 8.20398 7.86357C 8.04411 7.92374 7.87367 7.95077 7.70302 7.94302L 3.70302 7.94302L 3.70302 10.223L 9.28302 10.223C 9.40033 10.4202 9.49111 10.6321 9.55302 10.853C 9.63416 11.1222 9.67461 11.4019 9.67302 11.683C 9.71226 12.1083 9.58299 12.532 9.31302 12.863C 9.18763 12.9847 9.03865 13.0794 8.87527 13.1413C 8.71189 13.2032 8.53756 13.231 8.36302 13.223L 2.02302 13.223C 1.7558 13.2407 1.48789 13.2011 1.23722 13.1068C 0.986557 13.0126 0.758924 12.8658 0.56956 12.6765C 0.380195 12.4871 0.233473 12.2595 0.139216 12.0088C 0.0449593 11.7582 0.0053427 11.4902 0.0230205 11.223L 0.00302389 2.02302Z"/>
<path id="path5_fill" d="M 11.8214 13.2901C 11.5743 13.3486 11.3238 13.392 11.0714 13.4201C 10.7396 13.4608 10.4057 13.4808 10.0714 13.4801C 9.76512 13.4744 9.46022 13.4375 9.16139 13.3701C 8.93038 13.3297 8.71155 13.2374 8.52139 13.1001C 8.34182 12.9617 8.20633 12.7741 8.13139 12.5601C 8.03538 12.2666 7.99138 11.9587 8.00139 11.6501L 8.00139 8.29009L 3.8514 8.29009L 3.8514 13.2901C 3.60428 13.3487 3.35381 13.3921 3.1014 13.4201C 2.76963 13.4608 2.43565 13.4808 2.1014 13.4801C 1.78508 13.4764 1.47001 13.4396 1.16139 13.3701C 0.930381 13.3297 0.711554 13.2374 0.521394 13.1001C 0.341818 12.9617 0.206327 12.7741 0.131394 12.5601C 0.0353796 12.2666 -0.00862039 11.9587 0.00138941 11.6501L 0.00138941 0.200093L 0.761392 0.0800929C 1.09238 0.0295442 1.42657 0.00280898 1.76139 9.29636e-05C 2.05662 -0.00179108 2.35134 0.0250013 2.6414 0.0800929C 2.87221 0.121179 3.0909 0.213437 3.2814 0.350093C 3.46097 0.488503 3.59646 0.676107 3.6714 0.890093C 3.76741 1.18354 3.8114 1.4915 3.80139 1.80009L 3.80139 5.28009L 7.97139 5.28009L 7.97139 0.200093L 8.73139 0.0800929C 9.06238 0.0295442 9.39657 0.00280898 9.73139 9.29636e-05C 10.0266 -0.00172817 10.3213 0.0250636 10.6114 0.0800929C 10.8422 0.121179 11.0609 0.213437 11.2514 0.350093C 11.431 0.488503 11.5665 0.676107 11.6414 0.890093C 11.7374 1.18354 11.7814 1.4915 11.7714 1.80009L 11.8214 13.2901Z"/>
<path id="path6_fill" d="M 0.00493089 2.02302C -0.0139487 1.75471 0.021488 1.48535 0.109118 1.23105C 0.196748 0.976753 0.334772 0.742743 0.514933 0.543021C 0.712215 0.357501 0.945122 0.213979 1.19953 0.121156C 1.45393 0.0283326 1.72454 -0.0118578 1.99494 0.0030213L 9.16493 0.0030213C 9.28173 0.200499 9.37248 0.412256 9.43493 0.633021C 9.51593 0.902193 9.55638 1.18193 9.55493 1.46302C 9.57521 1.67215 9.55384 1.88323 9.49204 2.08405C 9.43025 2.28488 9.32927 2.47146 9.19493 2.63302C 9.06804 2.75194 8.91858 2.84418 8.7554 2.9043C 8.59222 2.96442 8.41865 2.99119 8.24494 2.98302L 3.65493 2.98302L 3.65493 4.98302L 8.54493 4.98302C 8.66056 5.17756 8.75127 5.38586 8.81494 5.60302C 8.89643 5.86865 8.93689 6.14517 8.93493 6.42302C 8.97536 6.84375 8.84976 7.26361 8.58493 7.59302C 8.46174 7.71136 8.31577 7.8034 8.15589 7.86357C 7.99602 7.92374 7.82558 7.95077 7.65493 7.94302L 3.65493 7.94302L 3.65493 10.223L 9.24494 10.223C 9.36193 10.4204 9.45269 10.6322 9.51493 10.853C 9.59579 11.1222 9.63623 11.4019 9.63494 11.683C 9.67417 12.1083 9.5449 12.532 9.27493 12.863C 9.14954 12.9847 9.00056 13.0794 8.83718 13.1413C 8.67379 13.2032 8.49947 13.231 8.32493 13.223L 2.02494 13.223C 1.75772 13.2407 1.4898 13.2011 1.23914 13.1068C 0.988472 13.0126 0.760839 12.8658 0.571474 12.6765C 0.38211 12.4871 0.235388 12.2595 0.141131 12.0088C 0.0468739 11.7582 0.00725732 11.4902 0.0249352 11.223L 0.00493089 2.02302Z"/>
<path id="path7_fill" d="M 3.77139 9.30711L 3.77139 13.4771C 3.5243 13.5358 3.27382 13.5792 3.02139 13.6071C 2.68962 13.6478 2.35565 13.6678 2.02139 13.6671C 1.72615 13.6693 1.4314 13.6425 1.1414 13.5871C 0.912946 13.5484 0.696991 13.4558 0.511391 13.3171C 0.33672 13.1762 0.205071 12.9891 0.131394 12.7771C 0.0353793 12.4837 -0.00861306 12.1757 0.00139673 11.8671L 0.00139673 1.62711C -0.0109231 1.36692 0.0787715 1.11219 0.251397 0.917113C 0.44529 0.734594 0.677656 0.597904 0.931389 0.517113C 1.48935 0.328829 2.06604 0.201422 2.65139 0.137112C 3.34498 0.0548125 4.04294 0.0147387 4.74139 0.0171126C 6.34815 -0.0954197 7.94456 0.349597 9.26139 1.27711C 9.76052 1.68983 10.1574 2.21239 10.4211 2.80394C 10.6848 3.39549 10.8081 4.04001 10.7814 4.68711C 10.8024 5.50923 10.5568 6.31609 10.0814 6.98711C 9.64904 7.59768 9.08519 8.10344 8.43139 8.46711C 8.95139 9.17378 9.46472 9.84045 9.97139 10.4671C 10.4162 11.0008 10.8175 11.5693 11.1714 12.1671C 11.0568 12.6365 10.7762 13.0486 10.3814 13.3271C 10.004 13.5924 9.5527 13.7323 9.09139 13.7271C 8.81077 13.7324 8.53095 13.6953 8.26139 13.6171C 8.04243 13.5527 7.83612 13.4512 7.65139 13.3171C 7.46998 13.1801 7.30844 13.0185 7.17139 12.8371C 7.02239 12.6423 6.88546 12.4386 6.76139 12.2271L 4.93139 9.29711L 3.77139 9.30711ZM 5.1414 6.41711C 5.61181 6.44313 6.07512 6.29345 6.44139 5.99711C 6.60804 5.83661 6.73742 5.64147 6.82036 5.42547C 6.9033 5.20948 6.93779 4.9779 6.92139 4.74711C 6.93757 4.51176 6.89801 4.27591 6.80592 4.05871C 6.71383 3.84152 6.57181 3.64911 6.3914 3.49711C 5.8927 3.17645 5.30232 3.02886 4.7114 3.07711L 4.19139 3.07711L 3.76139 3.13711L 3.76139 6.39711L 5.1414 6.41711Z"/>
<path id="path8_fill" d="M 0.00265021 6.97606C -0.0169963 5.95115 0.163016 4.9322 0.532649 3.97606C 0.851198 3.15917 1.34351 2.42127 1.97547 1.81348C 2.60744 1.20569 3.36396 0.742525 4.19265 0.456062C 5.94473 -0.15202 7.85058 -0.15202 9.60266 0.456062C 10.4132 0.749151 11.1551 1.20519 11.7826 1.79606C 12.4024 2.41411 12.8831 3.15734 13.1927 3.97606C 13.5628 4.93207 13.7428 5.95111 13.7227 6.97606C 13.74 7.9999 13.5636 9.01779 13.2026 9.97606C 12.8862 10.8067 12.3912 11.5577 11.7527 12.1761C 11.1276 12.7702 10.385 13.2266 9.57266 13.5161C 8.69314 13.828 7.76582 13.9837 6.83265 13.9761C 5.89858 13.9843 4.97059 13.8251 4.09265 13.5061C 3.28137 13.2111 2.5418 12.7476 1.92266 12.1461C 1.2964 11.5216 0.809095 10.7719 0.492656 9.94606C 0.142863 8.99599 -0.0234188 7.98815 0.00265021 6.97606ZM 3.91265 6.97606C 3.82189 8.0387 4.10482 9.09971 4.71265 9.97606C 4.98295 10.2842 5.31591 10.5311 5.68927 10.7002C 6.06262 10.8693 6.46777 10.9568 6.87765 10.9568C 7.28753 10.9568 7.69268 10.8693 8.06604 10.7002C 8.43939 10.5311 8.77236 10.2842 9.04266 9.97606C 9.65049 9.09971 9.93341 8.0387 9.84265 6.97606C 9.91912 5.93807 9.64056 4.90491 9.05265 4.04606C 8.79606 3.72189 8.46692 3.46251 8.09175 3.28882C 7.71657 3.11512 7.30584 3.03197 6.89265 3.04606C 6.47991 3.0351 6.07022 3.11964 5.69554 3.2931C 5.32087 3.46657 4.99133 3.72426 4.73265 4.04606C 4.13019 4.89884 3.84377 5.93492 3.92266 6.97606L 3.91265 6.97606Z"/>
</defs>
</svg>
